<?xml version="1.0" encoding="utf-8"?>
<!-- Generator: Adobe Illustrator 26.0.3, SVG Export Plug-In . SVG Version: 6.00 Build 0)  -->
<svg version="1.1" id="Layer_1" xmlns="http://www.w3.org/2000/svg" xmlns:xlink="http://www.w3.org/1999/xlink" x="0px" y="0px"
	 viewBox="0 0 375.15 128.83" style="enable-background:new 0 0 375.15 128.83;" xml:space="preserve">
<style type="text/css">
	.st0{fill:#231F20;stroke:#231F20;stroke-miterlimit:10;}
	.st1{fill:#231F20;}
	.st2{fill:none;stroke:#231F20;stroke-miterlimit:10;}
</style>
<path class="st0" d="M328.59,75.37c0,10.03-8.14,18.17-18.17,18.17c-0.49,0-0.98-0.02-1.46-0.06c0.01-0.33,0.01-0.67,0.01-1
	c0-5.23-0.62-10.3-1.8-15.17c-1.45-6.07-3.77-11.81-6.8-17.08c2.88-1.93,6.33-3.04,10.05-3.04c1.12,0,2.23,0.1,3.29,0.3
	C322.17,59.04,328.59,66.45,328.59,75.37z"/>
<g>
	<path class="st1" d="M113.65,44.86c0,1.83-0.08,3.72-0.22,5.62c-0.88,11.4-4.43,22.41-10.55,32.71c-0.98,1.66-2.06,3.35-3.22,5.03
		l-0.24,0.34c-0.72,1.04-1.4,1.96-2.05,2.83c-0.48,0.51-0.94,1-1.4,1.46c-0.22-0.34-0.42-0.66-0.62-0.97
		c-0.17-0.27-0.34-0.54-0.52-0.87c-3.01-4.91-5.48-10.08-7.37-15.36c-1.17-3.24-2.13-6.61-2.84-10.01
		c-1.13-5.33-1.66-10.82-1.56-16.33c0.02-1.88,0.13-3.88,0.33-5.92c1.25-12.56,5.65-24.37,13.11-35.13
		c5.84,3.94,10.77,10.18,14,17.77l0.07,0.18c2.07,4.74,3.08,9.94,3.01,15.47v0.14C113.63,42.76,113.65,43.76,113.65,44.86z"/>
</g>
<path class="st2" d="M54.09,34.58c0,3.29-1.29,5.96-2.87,5.96c-1.58,0-2.87-2.67-2.87-5.96s1.29-5.96,2.87-5.96
	C52.8,28.62,54.09,31.29,54.09,34.58z"/>
<path class="st0" d="M361.81,102.73h-56.87c0.41-2.76,0.64-5.58,0.68-8.45c0.01-0.33,0.01-0.67,0.01-1c0-5.23-0.62-10.3-1.8-15.17
	c-1.45-6.07-3.77-11.81-6.8-17.08c-11.17-19.37-32.1-32.41-56.07-32.41c-17.86,0-34.02,7.24-45.72,18.94
	c-10.8,10.4-25.49,16.79-41.68,16.76c-12.82-0.03-24.71-4.04-34.46-10.89c-1.26-0.89-2.49-1.82-3.68-2.8
	c-0.92,11.95-4.7,23.28-10.82,33.58c-1.03,1.75-2.13,3.46-3.3,5.15v0.01c-0.78,1.12-1.58,2.23-2.41,3.32l-0.03,0.03
	c-0.84,1.11-1.72,2.2-2.62,3.27c-0.09-0.11-0.18-0.21-0.26-0.32c-0.1,0.11-0.21,0.21-0.32,0.32c-0.69-1-1.35-2.02-2-3.04
	c-0.19-0.3-0.37-0.6-0.54-0.9c-3.48-4.63-6.44-9.52-8.86-14.63c-1.54-3.23-2.85-6.55-3.92-9.94c-1.69-5.33-2.79-10.85-3.25-16.51
	v-0.01c-0.18-2.01-0.26-4.05-0.26-6.1c0-15.2,4.62-29.54,12.8-42.2c-4.01-1.4-8.31-2.16-12.8-2.16c-12.02,0-22.76,5.46-29.88,14.04
	c0,0,0,0-0.04,0.04c-0.01,0.01-0.02,0.02-0.04,0.04c-0.01,0.02-0.03,0.03-0.05,0.06l-0.07,0.07c-0.03,0.03-0.06,0.06-0.1,0.1
	c-0.04,0.04-0.08,0.08-0.12,0.12c-0.23,0.23-0.57,0.59-1.1,1.13c-0.06,0.06-0.13,0.12-0.19,0.19c-0.85,0.87-2.12,2.15-4,4.07
	c-5.7,5.83-10.31,13.99-14.67,22.71c-4.36,8.71-1.02,14.25,2.52,18.11c1.84,2.01,5.77,5.66,10.32,8.54
	c4.68,2.96,9.99,5.12,12.38,5.68c3.27,0.75,10.98,0.12,10.98,0.12s0,0,0.01,0c0.15,0.03,0.3,0.08,0.43,0.16
	c0.01,0,0.02,0.01,0.02,0.01s0,0,0.01,0.01c0.08,0.12,0.76,1.14,0.71,2.44c-0.22,5.49-4.82,14.45-12.73,21.56
	c-6.73,6.05-29.92,4.95-36.67,4.48h-0.04c-0.73-0.05-1.25-0.09-1.55-0.12c-0.05-0.01-0.1-0.01-0.15-0.01
	c-0.04-0.01-0.08-0.01-0.12-0.01c-6.73,0-12.19,5.44-12.19,12.15c0,6.7,5.46,12.14,12.19,12.14h349.12c7.1,0,12.84-5.73,12.84-12.8
	S368.91,102.73,361.81,102.73z M51.22,40.54c-1.58,0-2.87-2.67-2.87-5.96s1.29-5.96,2.87-5.96c1.58,0,2.87,2.67,2.87,5.96
	S52.8,40.54,51.22,40.54z"/>
</svg>
